# xmcd
#
# Track frame offsets:
#	150
#	15154
#	38251
#	54907
#	73961
#	86853
#	109993
#	122336
#	140028
#	157894
#	177004
#
# Disc length: 2601 seconds
#
# Revision: 3
# Processed by: cddbd v1.5.2PL0 Copyright (c) Steve Scherf et al.
# Submitted via: audiograbber 1.83.01
#
DISCID=830a270b
DTITLE=George Harrison - The Dark Horse Years 1976-1992 [CD 1) - Thirty Three &
DTITLE=1/3 [remastered 2004]
DYEAR=1976
DGENRE=Rock
TTITLE0=Woman Don't You Cry For Me
TTITLE1=Dear One
TTITLE2=Beautiful Girl
TTITLE3=This Song
TTITLE4=See Yourself
TTITLE5=It's What You Value
TTITLE6=True Love
TTITLE7=Pure Smokey
TTITLE8=Crackerbox Palace
TTITLE9=Learning How To Love You
TTITLE10=Tears Of The World [additional track]
EXTD=
EXTT0=
EXTT1=
EXTT2=
EXTT3=
EXTT4=
EXTT5=
EXTT6=
EXTT7=
EXTT8=
EXTT9=
EXTT10=
PLAYORDER=
